<svg width="1081" height="342" viewBox="0 0 1081 342" fill="none" xmlns="http://www.w3.org/2000/svg">
<g clip-path="url(#clip0_102_112)">
<path d="M805.51 132.94C801.78 132.94 798.55 133.62 795.8 134.98C793.05 136.34 790.94 138.31 789.46 140.88C787.98 143.45 787.24 146.6 787.24 150.33V151.84H778.73V162.22H787.24V200.09H798.86V162.22H809.59V151.84H798.86V150.33C798.86 147.85 799.57 146.03 800.99 144.88C802.41 143.73 804.42 143.15 807.02 143.15C807.43 143.15 807.89 143.17 808.39 143.19C808.89 143.22 809.44 143.29 810.03 143.41V133.39C809.44 133.27 808.71 133.17 807.86 133.08C807 132.99 806.22 132.95 805.51 132.95V132.94Z" fill="#008C8C"/>
<path d="M843.98 152.94C840.96 151.49 837.47 150.77 833.51 150.77C830.26 150.77 827.24 151.3 824.46 152.37C821.68 153.43 819.27 154.9 817.23 156.76C815.19 158.62 813.7 160.83 812.75 163.37L822.24 167.98C823.13 165.85 824.53 164.11 826.45 162.75C828.37 161.39 830.57 160.71 833.06 160.71C835.72 160.71 837.85 161.41 839.45 162.79C841.05 164.18 841.84 165.91 841.84 167.98V169.54L827.56 171.88C823.77 172.47 820.64 173.48 818.16 174.9C815.68 176.32 813.83 178.08 812.62 180.18C811.41 182.28 810.8 184.66 810.8 187.32C810.8 189.98 811.48 192.54 812.84 194.64C814.2 196.74 816.14 198.35 818.65 199.47C821.16 200.59 824.1 201.16 827.48 201.16C830.14 201.16 832.55 200.81 834.71 200.1C836.87 199.39 838.82 198.33 840.56 196.91C841.27 196.33 841.93 195.69 842.56 195.02V200.11H853.56V168C853.56 164.63 852.72 161.64 851.03 159.04C849.34 156.44 846.99 154.41 843.98 152.96V152.94ZM840.34 186.42C839.33 188.25 837.9 189.69 836.04 190.72C834.18 191.76 832.03 192.27 829.61 192.27C827.72 192.27 826.14 191.78 824.86 190.81C823.59 189.83 822.95 188.52 822.95 186.86C822.95 185.2 823.51 183.77 824.64 182.74C825.76 181.71 827.48 180.98 829.78 180.57L841.84 178.43V180.48C841.84 182.61 841.34 184.59 840.33 186.42H840.34Z" fill="#008C8C"/>
<path d="M878.2 163.32C880.18 162.11 882.44 161.5 884.99 161.5C887.71 161.5 890.12 162.22 892.22 163.67C894.32 165.12 895.81 167.08 896.7 169.57L906.9 165.05C905.95 162.21 904.4 159.73 902.24 157.6C900.08 155.47 897.52 153.8 894.57 152.59C891.61 151.38 888.42 150.77 884.99 150.77C880.14 150.77 875.81 151.86 872 154.05C868.19 156.24 865.18 159.22 863 163.01C860.81 166.79 859.72 171.08 859.72 175.87C859.72 180.66 860.83 184.96 863.05 188.77C865.27 192.58 868.27 195.6 872.05 197.82C875.83 200.04 880.15 201.15 885 201.15C888.49 201.15 891.71 200.54 894.67 199.33C897.63 198.12 900.17 196.43 902.3 194.27C904.43 192.11 905.97 189.67 906.91 186.95L896.71 182.34C895.76 184.82 894.27 186.8 892.23 188.28C890.19 189.76 887.78 190.5 885 190.5C882.46 190.5 880.19 189.88 878.21 188.64C876.23 187.4 874.68 185.68 873.55 183.5C872.43 181.31 871.86 178.8 871.86 175.96C871.86 173.12 872.42 170.68 873.55 168.47C874.67 166.25 876.22 164.54 878.21 163.33L878.2 163.32Z" fill="#008C8C"/>
<path d="M937.57 190.41C935.68 190.41 934.12 190.11 932.91 189.52C931.7 188.93 930.81 188.07 930.25 186.95C929.69 185.83 929.41 184.47 929.41 182.87V162.2H940.5V151.82H929.41V140.82H917.7V144.55C917.7 146.92 917.06 148.72 915.79 149.96C914.52 151.2 912.7 151.82 910.34 151.82H909.45V162.2H917.7V183.49C917.7 188.93 919.21 193.14 922.22 196.13C925.24 199.12 929.46 200.61 934.9 200.61C935.79 200.61 936.76 200.55 937.83 200.43C938.89 200.31 939.84 200.19 940.67 200.08V190.15C940.14 190.21 939.59 190.27 939.03 190.33C938.47 190.39 937.98 190.42 937.57 190.42V190.41Z" fill="#008C8C"/>
<path d="M970.17 172.41L962.45 170.1C961.33 169.75 960.34 169.36 959.48 168.95C958.62 168.54 957.96 168.01 957.48 167.35C957.01 166.7 956.77 165.96 956.77 165.13C956.77 163.65 957.33 162.48 958.46 161.63C959.58 160.77 961.12 160.34 963.07 160.34C965.49 160.34 967.68 160.98 969.63 162.25C971.58 163.52 972.97 165.25 973.8 167.44L982.67 163.27C981.19 159.31 978.71 156.23 975.22 154.05C971.73 151.86 967.71 150.77 963.16 150.77C959.67 150.77 956.58 151.39 953.89 152.63C951.2 153.87 949.1 155.6 947.59 157.82C946.08 160.04 945.33 162.62 945.33 165.58C945.33 168.89 946.38 171.77 948.48 174.23C950.58 176.68 953.64 178.47 957.66 179.6L965.55 181.82C966.61 182.12 967.56 182.49 968.39 182.93C969.22 183.37 969.88 183.91 970.39 184.53C970.89 185.15 971.14 185.94 971.14 186.88C971.14 188.42 970.52 189.66 969.28 190.61C968.04 191.56 966.38 192.03 964.31 192.03C961.59 192.03 959.12 191.26 956.9 189.72C954.68 188.18 952.95 186.05 951.71 183.33L942.93 187.5C944.41 191.7 947.05 195.03 950.87 197.48C954.68 199.93 959.16 201.16 964.31 201.16C967.98 201.16 971.17 200.54 973.89 199.3C976.61 198.06 978.74 196.33 980.28 194.11C981.82 191.89 982.59 189.34 982.59 186.44C982.59 183.01 981.51 180.11 979.35 177.75C977.19 175.39 974.13 173.61 970.17 172.43V172.41Z" fill="#008C8C"/>
<path d="M258.5 154.05C254.66 151.86 250.34 150.77 245.55 150.77C240.76 150.77 236.53 151.86 232.69 154.05C228.85 156.24 225.77 159.22 223.47 163.01C221.16 166.79 220.01 171.11 220.01 175.96C220.01 180.81 221.16 185.13 223.47 188.91C225.78 192.69 228.86 195.68 232.74 197.87C236.61 200.06 240.88 201.15 245.56 201.15C250.24 201.15 254.58 200.06 258.42 197.87C262.26 195.68 265.34 192.7 267.64 188.91C269.95 185.13 271.1 180.81 271.1 175.96C271.1 171.11 269.96 166.72 267.69 162.97C265.41 159.22 262.35 156.24 258.51 154.06L258.5 154.05ZM257.21 183.45C256.06 185.67 254.49 187.4 252.51 188.64C250.53 189.88 248.21 190.5 245.55 190.5C242.89 190.5 240.64 189.88 238.63 188.64C236.62 187.4 235.04 185.67 233.88 183.45C232.73 181.23 232.15 178.74 232.15 175.96C232.15 173.18 232.73 170.7 233.88 168.51C235.03 166.32 236.61 164.61 238.63 163.37C240.64 162.13 242.95 161.51 245.55 161.51C248.15 161.51 250.53 162.13 252.51 163.37C254.49 164.61 256.06 166.33 257.21 168.51C258.36 170.7 258.94 173.18 258.94 175.96C258.94 178.74 258.36 181.24 257.21 183.45Z" fill="#008C8C"/>
<path d="M316.2 154.14C312.53 151.89 308.42 150.77 303.87 150.77C300.15 150.77 296.86 151.49 294.03 152.94C291.76 154.1 289.87 155.64 288.35 157.54V151.83H277.35V217.82H289.06V195.45C290.48 196.96 292.18 198.19 294.16 199.11C297.09 200.47 300.29 201.15 303.78 201.15C308.45 201.15 312.62 200.04 316.29 197.82C319.96 195.6 322.85 192.57 324.98 188.73C327.11 184.89 328.17 180.63 328.17 175.96C328.17 171.29 327.09 166.97 324.93 163.19C322.77 159.41 319.86 156.39 316.19 154.14H316.2ZM314.34 183.5C313.16 185.69 311.55 187.4 309.51 188.64C307.47 189.88 305.12 190.5 302.46 190.5C299.8 190.5 297.63 189.88 295.59 188.64C293.55 187.4 291.95 185.68 290.8 183.5C289.65 181.31 289.07 178.8 289.07 175.96C289.07 173.12 289.65 170.7 290.8 168.51C291.95 166.32 293.55 164.61 295.59 163.37C297.63 162.13 299.92 161.51 302.46 161.51C305 161.51 307.47 162.13 309.51 163.37C311.55 164.61 313.16 166.33 314.34 168.51C315.52 170.7 316.11 173.18 316.11 175.96C316.11 178.74 315.52 181.31 314.34 183.5Z" fill="#008C8C"/>
<path d="M373.68 157.77C371.67 155.58 369.23 153.87 366.36 152.63C363.49 151.39 360.17 150.77 356.38 150.77C351.83 150.77 347.75 151.86 344.14 154.05C340.53 156.24 337.67 159.21 335.54 162.96C333.41 166.72 332.35 171.02 332.35 175.86C332.35 180.7 333.38 184.79 335.45 188.63C337.52 192.47 340.43 195.52 344.19 197.77C347.94 200.02 352.31 201.14 357.27 201.14C360.52 201.14 363.54 200.64 366.32 199.63C369.1 198.63 371.49 197.24 373.5 195.46C375.51 193.69 376.99 191.65 377.93 189.34L368.53 184.73C367.47 186.62 366 188.13 364.14 189.25C362.28 190.37 360.02 190.94 357.35 190.94C354.68 190.94 352.34 190.32 350.3 189.08C348.26 187.84 346.72 186.08 345.69 183.8C345.07 182.43 344.68 180.94 344.52 179.32H379.26C379.5 178.61 379.66 177.83 379.75 176.97C379.84 176.11 379.88 175.24 379.88 174.35C379.88 171.1 379.35 168.07 378.28 165.26C377.22 162.45 375.68 159.95 373.67 157.77H373.68ZM344.76 170.36C344.96 169.34 345.24 168.4 345.61 167.52C346.59 165.21 348.02 163.44 349.91 162.2C351.8 160.96 353.96 160.34 356.38 160.34C358.8 160.34 361.09 160.96 362.9 162.2C364.7 163.44 366 165.13 366.8 167.26C367.16 168.23 367.38 169.27 367.45 170.36H344.75H344.76Z" fill="#008C8C"/>
<path d="M420.41 153.07C417.66 151.53 414.51 150.76 410.96 150.76C407.41 150.76 404.53 151.51 401.96 153.02C399.97 154.18 398.43 155.77 397.3 157.76V151.83H386.3V200.08H398.01V171.79C398.01 169.66 398.42 167.83 399.25 166.29C400.08 164.75 401.23 163.57 402.71 162.74C404.19 161.91 405.87 161.5 407.77 161.5C409.67 161.5 411.35 161.91 412.83 162.74C414.31 163.57 415.46 164.75 416.29 166.29C417.12 167.83 417.53 169.66 417.53 171.79V200.08H429.15V169.04C429.15 165.43 428.38 162.25 426.84 159.51C425.3 156.76 423.16 154.62 420.41 153.08V153.07Z" fill="#008C8C"/>
<path d="M572.45 181.68L586.23 180.48L577.52 159.9L572.45 181.68Z" fill="#008C8C"/>
<path d="M487.73 174.36C488.7 173.26 489.11 171.88 488.96 170.21C488.81 168.54 488.17 167.25 487.03 166.33C485.88 165.42 484.43 165.04 482.66 165.19L470.06 166.29L471.03 177.34L483.63 176.24C485.4 176.08 486.77 175.46 487.73 174.36Z" fill="#008C8C"/>
<path d="M490.71 187.65C489.22 186.45 487.32 185.94 485.01 186.14L471.89 187.29L473.15 201.66L486.27 200.51C488.58 200.31 490.36 199.49 491.62 198.04C492.88 196.59 493.42 194.81 493.23 192.7C493.04 190.54 492.2 188.86 490.71 187.65Z" fill="#008C8C"/>
<path d="M765.79 188.28L760.61 129.04C759.9 120.9 752.72 114.88 744.58 115.59L454.41 140.98C446.27 141.69 440.25 148.87 440.96 157.01L446.14 216.25C446.85 224.39 454.03 230.41 462.17 229.7L752.34 204.31C760.48 203.6 766.5 196.42 765.79 188.28ZM500.38 204.77C497.06 208.08 492.2 210.01 485.82 210.57L462.61 212.6L457.81 157.71L481.02 155.68C484.8 155.35 488.1 155.7 490.91 156.74C493.72 157.78 495.95 159.43 497.58 161.69C499.21 163.95 500.18 166.77 500.47 170.16C500.68 172.57 500.22 174.92 499.08 177.22C498.65 178.09 498.06 178.9 497.38 179.68C498.19 180.13 498.94 180.61 499.57 181.14C501.28 182.58 502.51 184.19 503.26 185.98C504.01 187.77 504.47 189.67 504.65 191.69C505.12 197.1 503.7 201.45 500.37 204.76L500.38 204.77ZM513.83 208.12L509.03 153.23L545.94 150L546.81 159.95L521.32 162.18L522.41 174.63L546.43 172.53L547.3 182.48L523.28 184.58L524.38 197.18L549.87 194.95L550.74 204.9L513.82 208.13L513.83 208.12ZM594.93 201.02L590.27 190.14L570.15 191.9L567.45 203.42L555.07 204.5L568.84 147.98L584.02 146.65L607.39 199.92L594.94 201.01L594.93 201.02ZM651.97 186.64C650.3 189.98 647.86 192.71 644.63 194.82C641.4 196.93 637.62 198.18 633.3 198.56C628.98 198.94 625.04 198.37 621.49 196.85C617.94 195.33 615.06 193.07 612.84 190.07C610.62 187.07 609.34 183.56 608.98 179.53L605.94 144.75L617.36 143.75L620.34 177.79C620.53 179.95 621.18 181.86 622.29 183.52C623.4 185.18 624.84 186.43 626.59 187.26C628.35 188.1 630.28 188.42 632.39 188.24C634.55 188.05 636.41 187.39 637.97 186.27C639.53 185.14 640.71 183.67 641.52 181.84C642.33 180.01 642.63 178.02 642.44 175.86L639.46 141.82L650.88 140.82L653.92 175.6C654.27 179.63 653.62 183.31 651.95 186.65L651.97 186.64ZM686.34 193.03L674.92 194.03L670.99 149.08L657.06 150.3L656.19 140.35L695.24 136.93L696.11 146.88L682.41 148.08L686.34 193.03ZM734.4 188.83L722.98 189.83L720.88 165.88L699.9 136.53L712.94 135.39L725.55 153.63L734.74 133.48L747.78 132.34L732.28 164.81L734.38 188.83H734.4Z" fill="#008C8C"/>
<path d="M147.02 126.59C152.31 126.59 157.4 127.44 162.17 128.99V117.16C162.17 116.14 161.34 115.31 160.32 115.31H155.25V102.84H163.25C164.6 102.84 165.69 101.75 165.69 100.4C165.69 99.05 164.6 97.96 163.25 97.96H140.65C139.63 97.96 138.8 98.79 138.8 99.81V115.3H133.73C132.71 115.3 131.88 116.13 131.88 117.15V128.98C136.65 127.43 141.74 126.58 147.03 126.58L147.02 126.59Z" fill="#008C8C"/>
<path d="M123.23 218.42L114.52 239.22L125.99 244.03L134.78 223.05C138.7 224.06 142.8 224.6 147.03 224.6C174.08 224.6 196.08 202.6 196.08 175.55H183.65C183.65 195.74 167.22 212.17 147.03 212.17C126.84 212.17 110.41 195.74 110.41 175.55H97.98C97.98 193.97 108.19 210.04 123.24 218.42H123.23Z" fill="#008C8C"/>
<path d="M98.0601 175.55C98.0601 148.51 119.98 126.59 147.02 126.59C174.06 126.59 195.98 148.51 195.98 175.55H98.0601Z" fill="#008C8C"/>
</g>
<defs>
<clipPath id="clip0_102_112">
<rect width="1080.64" height="342" fill="white"/>
</clipPath>
</defs>
</svg>
