<svg width="522" height="594" viewBox="0 0 522 594" fill="none" xmlns="http://www.w3.org/2000/svg">
<path d="M182.73 427.68C179 427.68 175.75 428.36 173 429.72C170.24 431.08 168.13 433.05 166.65 435.63C165.17 438.21 164.43 441.36 164.43 445.09V446.6H155.9V457H164.43V494.95H176.07V457H186.82V446.6H176.07V445.09C176.07 442.6 176.78 440.78 178.2 439.62C179.62 438.46 181.64 437.89 184.24 437.89C184.65 437.89 185.11 437.91 185.62 437.93C186.12 437.96 186.67 438.03 187.26 438.15V428.11C186.67 427.99 185.94 427.89 185.08 427.8C184.22 427.71 183.44 427.67 182.73 427.67V427.68Z" fill="black"/>
<path d="M221.291 447.72C218.271 446.27 214.771 445.54 210.801 445.54C207.541 445.54 204.521 446.07 201.741 447.14C198.951 448.21 196.541 449.67 194.501 451.54C192.461 453.41 190.961 455.61 190.011 458.16L199.521 462.78C200.411 460.65 201.821 458.9 203.741 457.54C205.661 456.18 207.871 455.5 210.361 455.5C213.031 455.5 215.161 456.2 216.761 457.59C218.361 458.98 219.161 460.72 219.161 462.79V464.36L204.851 466.7C201.061 467.29 197.921 468.3 195.431 469.72C192.941 471.14 191.091 472.91 189.881 475.01C188.661 477.11 188.061 479.5 188.061 482.16C188.061 484.82 188.741 487.39 190.101 489.49C191.461 491.59 193.401 493.21 195.921 494.33C198.441 495.45 201.391 496.02 204.761 496.02C207.431 496.02 209.841 495.66 212.001 494.95C214.161 494.24 216.121 493.17 217.871 491.75C218.581 491.17 219.241 490.53 219.871 489.85V494.95H230.891V462.78C230.891 459.4 230.051 456.41 228.361 453.8C226.671 451.19 224.321 449.16 221.301 447.71L221.291 447.72ZM217.651 481.27C216.641 483.11 215.211 484.54 213.341 485.58C211.471 486.62 209.331 487.14 206.901 487.14C205.001 487.14 203.421 486.65 202.151 485.67C200.881 484.69 200.241 483.37 200.241 481.72C200.241 480.07 200.801 478.62 201.931 477.59C203.051 476.55 204.771 475.83 207.081 475.41L219.171 473.26V475.32C219.171 477.45 218.671 479.44 217.661 481.27H217.651Z" fill="black"/>
<path d="M255.571 458.11C257.551 456.9 259.821 456.29 262.371 456.29C265.091 456.29 267.511 457.02 269.611 458.47C271.711 459.92 273.211 461.89 274.101 464.38L284.321 459.85C283.371 457.01 281.821 454.52 279.651 452.38C277.491 450.25 274.921 448.57 271.961 447.36C269.001 446.15 265.801 445.54 262.361 445.54C257.501 445.54 253.161 446.64 249.341 448.83C245.521 451.02 242.511 454.02 240.321 457.81C238.131 461.6 237.031 465.9 237.031 470.7C237.031 475.5 238.141 479.81 240.361 483.63C242.581 487.45 245.591 490.47 249.381 492.69C253.171 494.91 257.501 496.02 262.351 496.02C265.841 496.02 269.071 495.41 272.041 494.2C275.001 492.99 277.551 491.3 279.681 489.13C281.811 486.97 283.351 484.52 284.301 481.8L274.081 477.18C273.131 479.67 271.641 481.65 269.591 483.13C267.551 484.61 265.131 485.35 262.351 485.35C259.801 485.35 257.541 484.73 255.551 483.48C253.561 482.24 252.011 480.52 250.881 478.33C249.751 476.14 249.191 473.62 249.191 470.78C249.191 467.94 249.751 465.49 250.881 463.27C252.001 461.05 253.561 459.33 255.551 458.12L255.571 458.11Z" fill="black"/>
<path d="M315.061 485.26C313.161 485.26 311.611 484.96 310.391 484.37C309.171 483.78 308.291 482.92 307.721 481.79C307.161 480.67 306.881 479.3 306.881 477.7V456.99H317.991V446.59H306.881V435.57H295.151V439.3C295.151 441.67 294.511 443.48 293.241 444.72C291.971 445.96 290.141 446.59 287.771 446.59H286.881V456.99H295.141V478.32C295.141 483.77 296.651 487.99 299.671 490.98C302.691 493.97 306.931 495.47 312.381 495.47C313.271 495.47 314.251 495.41 315.311 495.29C316.381 495.17 317.321 495.05 318.151 494.93V484.98C317.621 485.04 317.071 485.1 316.511 485.16C315.951 485.22 315.461 485.25 315.041 485.25L315.061 485.26Z" fill="black"/>
<path d="M347.73 467.22L340 464.91C338.87 464.55 337.88 464.17 337.02 463.75C336.16 463.34 335.49 462.8 335.02 462.15C334.55 461.5 334.31 460.76 334.31 459.93C334.31 458.45 334.87 457.28 336 456.42C337.12 455.56 338.67 455.13 340.62 455.13C343.05 455.13 345.24 455.77 347.2 457.04C349.15 458.31 350.55 460.05 351.38 462.24L360.27 458.06C358.79 454.09 356.3 451.01 352.8 448.82C349.3 446.63 345.28 445.53 340.71 445.53C337.21 445.53 334.12 446.15 331.42 447.4C328.72 448.64 326.62 450.38 325.11 452.6C323.6 454.82 322.84 457.41 322.84 460.38C322.84 463.7 323.89 466.59 325.99 469.04C328.09 471.5 331.16 473.29 335.19 474.42L343.1 476.64C344.17 476.94 345.11 477.31 345.94 477.75C346.77 478.19 347.44 478.73 347.94 479.35C348.44 479.97 348.7 480.76 348.7 481.7C348.7 483.24 348.08 484.49 346.83 485.43C345.59 486.38 343.93 486.85 341.85 486.85C339.12 486.85 336.65 486.08 334.43 484.54C332.21 483 330.48 480.87 329.23 478.14L320.43 482.32C321.91 486.53 324.56 489.86 328.38 492.32C332.2 494.78 336.69 496.01 341.84 496.01C345.51 496.01 348.71 495.39 351.44 494.14C354.16 492.9 356.3 491.16 357.84 488.94C359.38 486.72 360.15 484.16 360.15 481.25C360.15 477.81 359.07 474.91 356.91 472.54C354.75 470.17 351.68 468.39 347.71 467.21L347.73 467.22Z" fill="black"/>
<path d="M193.64 260.3C189.79 258.11 185.46 257.01 180.67 257.01C175.88 257.01 171.63 258.11 167.78 260.3C163.93 262.49 160.85 265.49 158.54 269.28C156.23 273.07 155.07 277.4 155.07 282.25C155.07 287.1 156.23 291.43 158.54 295.22C160.85 299.01 163.95 302 167.83 304.2C171.71 306.39 175.99 307.49 180.67 307.49C185.35 307.49 189.7 306.39 193.56 304.2C197.41 302.01 200.49 299.02 202.8 295.22C205.11 291.43 206.27 287.1 206.27 282.25C206.27 277.4 205.13 272.99 202.85 269.23C200.57 265.47 197.5 262.49 193.65 260.3H193.64ZM192.35 289.76C191.19 291.98 189.62 293.71 187.64 294.96C185.65 296.2 183.33 296.83 180.66 296.83C177.99 296.83 175.74 296.21 173.73 294.96C171.71 293.72 170.13 291.98 168.98 289.76C167.82 287.54 167.25 285.04 167.25 282.25C167.25 279.46 167.83 276.98 168.98 274.78C170.14 272.59 171.72 270.87 173.73 269.63C175.74 268.39 178.05 267.76 180.66 267.76C183.27 267.76 185.65 268.38 187.64 269.63C189.62 270.87 191.19 272.59 192.35 274.78C193.51 276.97 194.08 279.46 194.08 282.25C194.08 285.04 193.5 287.54 192.35 289.76Z" fill="black"/>
<path d="M251.461 260.39C247.791 258.14 243.671 257.01 239.111 257.01C235.381 257.01 232.091 257.74 229.251 259.19C226.971 260.35 225.081 261.89 223.561 263.8V258.08H212.541V324.2H224.271V301.78C225.701 303.3 227.401 304.52 229.381 305.45C232.311 306.81 235.531 307.49 239.021 307.49C243.701 307.49 247.881 306.38 251.551 304.16C255.221 301.94 258.131 298.9 260.261 295.05C262.391 291.2 263.461 286.93 263.461 282.25C263.461 277.57 262.381 273.24 260.221 269.45C258.061 265.66 255.141 262.64 251.471 260.39H251.461ZM249.591 289.81C248.401 292 246.791 293.72 244.751 294.96C242.711 296.2 240.351 296.83 237.681 296.83C235.011 296.83 232.841 296.21 230.791 294.96C228.751 293.72 227.151 292 225.991 289.81C224.831 287.62 224.261 285.1 224.261 282.26C224.261 279.42 224.841 276.99 225.991 274.79C227.151 272.6 228.741 270.88 230.791 269.64C232.831 268.4 235.131 267.77 237.681 267.77C240.231 267.77 242.701 268.39 244.751 269.64C246.801 270.89 248.411 272.6 249.591 274.79C250.771 276.98 251.371 279.47 251.371 282.26C251.371 285.05 250.781 287.62 249.591 289.81Z" fill="black"/>
<path d="M309.051 264.03C307.041 261.84 304.591 260.12 301.721 258.88C298.851 257.64 295.511 257.01 291.721 257.01C287.161 257.01 283.071 258.11 279.461 260.3C275.851 262.49 272.971 265.47 270.841 269.23C268.711 272.99 267.641 277.3 267.641 282.16C267.641 287.02 268.681 291.11 270.751 294.96C272.821 298.81 275.741 301.86 279.501 304.11C283.261 306.36 287.631 307.49 292.611 307.49C295.871 307.49 298.891 306.99 301.671 305.98C304.451 304.97 306.851 303.58 308.871 301.8C310.881 300.02 312.371 297.98 313.311 295.67L303.891 291.05C302.821 292.95 301.361 294.46 299.491 295.58C297.621 296.71 295.361 297.27 292.691 297.27C290.021 297.27 287.671 296.65 285.621 295.4C283.581 294.16 282.031 292.39 281.001 290.11C280.381 288.74 279.991 287.24 279.821 285.62H314.631C314.871 284.91 315.031 284.12 315.121 283.27C315.211 282.41 315.251 281.54 315.251 280.65C315.251 277.39 314.721 274.36 313.651 271.54C312.581 268.73 311.041 266.22 309.031 264.03H309.051ZM280.071 276.65C280.271 275.63 280.551 274.68 280.921 273.81C281.901 271.5 283.331 269.72 285.231 268.48C287.131 267.24 289.291 266.61 291.721 266.61C294.151 266.61 296.441 267.23 298.251 268.48C300.061 269.72 301.361 271.41 302.161 273.55C302.531 274.52 302.741 275.56 302.811 276.66H280.071V276.65Z" fill="black"/>
<path d="M355.871 259.32C353.111 257.78 349.961 257.01 346.411 257.01C342.861 257.01 339.971 257.77 337.391 259.28C335.401 260.45 333.851 262.03 332.721 264.03V258.08H321.701V306.43H333.431V278.08C333.431 275.95 333.841 274.11 334.671 272.57C335.501 271.03 336.651 269.85 338.141 269.02C339.621 268.19 341.311 267.78 343.211 267.78C345.111 267.78 346.791 268.2 348.281 269.02C349.761 269.85 350.921 271.03 351.751 272.57C352.581 274.11 352.991 275.95 352.991 278.08V306.43H364.631V275.33C364.631 271.72 363.861 268.53 362.321 265.78C360.781 263.03 358.631 260.88 355.881 259.34L355.871 259.32Z" fill="black"/>
<path d="M401.657 313.247L111.476 338.635C103.339 339.347 97.3193 346.52 98.0312 354.658L103.214 413.901C103.926 422.038 111.1 428.058 119.237 427.346L409.419 401.958C417.556 401.246 423.575 394.073 422.863 385.936L417.68 326.692C416.968 318.555 409.795 312.535 401.657 313.247Z" fill="#008C8C"/>
<path d="M160.331 383.64C159.581 381.85 158.351 380.24 156.641 378.8C156.011 378.27 155.261 377.79 154.451 377.34C155.131 376.55 155.721 375.74 156.151 374.88C157.291 372.58 157.751 370.22 157.541 367.82C157.241 364.43 156.281 361.61 154.651 359.35C153.011 357.09 150.791 355.44 147.981 354.4C145.171 353.36 141.871 353 138.091 353.34L114.881 355.37L119.681 410.26L142.891 408.23C149.271 407.67 154.131 405.74 157.451 402.43C160.771 399.12 162.201 394.76 161.731 389.36C161.551 387.35 161.091 385.44 160.341 383.65L160.331 383.64ZM127.131 363.94L139.731 362.84C141.501 362.69 142.951 363.07 144.101 363.98C145.241 364.9 145.891 366.19 146.031 367.86C146.181 369.53 145.771 370.91 144.801 372.01C143.831 373.11 142.461 373.74 140.691 373.89L128.091 374.99L127.121 363.94H127.131ZM148.691 395.69C147.431 397.14 145.651 397.96 143.341 398.16L130.221 399.31L128.961 384.94L142.081 383.79C144.391 383.59 146.291 384.09 147.781 385.3C149.271 386.51 150.111 388.19 150.301 390.35C150.481 392.46 149.951 394.24 148.691 395.69Z" fill="white"/>
<path d="M181.442 394.82L180.342 382.23L204.352 380.12L203.492 370.18L179.472 372.28L178.382 359.83L203.872 357.6L203.002 347.65L166.092 350.88L170.892 405.77L207.802 402.54L206.932 392.59L181.442 394.82Z" fill="white"/>
<path d="M225.891 345.64L212.121 402.16L224.501 401.08L227.201 389.56L247.321 387.8L251.981 398.68L264.431 397.59L241.061 344.32L225.881 345.65L225.891 345.64ZM229.511 379.33L234.581 357.55L243.291 378.13L229.511 379.34V379.33Z" fill="white"/>
<path d="M307.952 338.46L296.532 339.46L299.512 373.5C299.702 375.66 299.392 377.66 298.592 379.48C297.782 381.31 296.602 382.79 295.042 383.91C293.482 385.04 291.622 385.69 289.462 385.88C287.352 386.06 285.412 385.74 283.662 384.9C281.912 384.06 280.472 382.82 279.362 381.16C278.252 379.5 277.602 377.59 277.412 375.43L274.432 341.39L263.012 342.39L266.052 377.17C266.402 381.2 267.692 384.71 269.912 387.71C272.132 390.71 275.012 392.97 278.562 394.49C282.112 396.01 286.042 396.58 290.372 396.2C294.692 395.82 298.472 394.58 301.702 392.46C304.932 390.35 307.382 387.62 309.042 384.28C310.702 380.94 311.362 377.26 311.012 373.23L307.972 338.45L307.952 338.46Z" fill="white"/>
<path d="M352.3 334.58L313.25 338L314.12 347.95L328.05 346.73L331.98 391.68L343.4 390.68L339.47 345.73L353.17 344.53L352.3 334.58Z" fill="white"/>
<path d="M404.861 329.99L391.821 331.13L382.621 351.28L370.011 333.04L356.971 334.18L377.951 363.52L380.041 387.47L391.461 386.47L389.361 362.45L404.861 329.99Z" fill="white"/>
<path d="M260.441 126.59C265.731 126.59 270.821 127.44 275.591 128.99V117.16C275.591 116.14 274.761 115.31 273.741 115.31H268.671V102.84H276.671C278.021 102.84 279.111 101.75 279.111 100.4C279.111 99.05 278.021 97.96 276.671 97.96H254.071C253.051 97.96 252.221 98.79 252.221 99.81V115.3H247.151C246.131 115.3 245.301 116.13 245.301 117.15V128.98C250.071 127.43 255.161 126.58 260.451 126.58L260.441 126.59Z" fill="#008C8C"/>
<path d="M236.65 218.42L227.94 239.22L239.41 244.03L248.2 223.05C252.12 224.06 256.22 224.6 260.45 224.6C287.5 224.6 309.5 202.6 309.5 175.55H297.07C297.07 195.74 280.64 212.17 260.45 212.17C240.26 212.17 223.83 195.74 223.83 175.55H211.4C211.4 193.97 221.61 210.04 236.66 218.42H236.65Z" fill="black"/>
<path d="M211.48 175.55C211.48 148.51 233.4 126.59 260.44 126.59C287.48 126.59 309.4 148.51 309.4 175.55H211.48Z" fill="#82DCFF"/>
<path d="M297.051 175.55C297.051 195.77 280.661 212.17 260.431 212.17C240.211 212.17 223.811 195.78 223.811 175.55H297.041H297.051Z" fill="white"/>
</svg>
