<svg width="245" height="245" viewBox="0 0 245 245" fill="none" xmlns="http://www.w3.org/2000/svg">
<g clip-path="url(#clip0_102_119)">
<path d="M244.92 0H0V244.92H244.92V0Z" fill="black"/>
<path d="M122.46 61.1601C129.07 61.1601 135.43 62.2201 141.39 64.1601V49.3701C141.39 48.0901 140.35 47.0601 139.08 47.0601H132.74V31.4701H142.74C144.42 31.4701 145.79 30.1101 145.79 28.4201C145.79 26.7301 144.43 25.3701 142.74 25.3701H114.49C113.21 25.3701 112.18 26.4101 112.18 27.6801V47.0401H105.84C104.56 47.0401 103.53 48.0801 103.53 49.3501V64.1401C109.49 62.2001 115.85 61.1401 122.46 61.1401V61.1601Z" fill="#008C8C"/>
<path d="M92.72 175.96L81.83 201.97L96.16 207.98L107.15 181.75C112.04 183.01 117.17 183.68 122.46 183.68C156.27 183.68 183.77 156.18 183.77 122.37H168.23C168.23 147.61 147.7 168.14 122.46 168.14C97.22 168.14 76.69 147.61 76.69 122.37H61.15C61.15 145.39 73.91 165.48 92.73 175.96H92.72Z" fill="white"/>
<path d="M61.26 122.36C61.26 88.5602 88.66 61.1602 122.46 61.1602C156.26 61.1602 183.66 88.5602 183.66 122.36H61.26Z" fill="#82DCFF"/>
</g>
<defs>
<clipPath id="clip0_102_119">
<rect width="244.92" height="244.92" fill="white"/>
</clipPath>
</defs>
</svg>
