<svg width="1081" height="342" viewBox="0 0 1081 342" fill="none" xmlns="http://www.w3.org/2000/svg">
<g clip-path="url(#clip0_102_121)">
<path d="M1080.64 0H0V342H1080.64V0Z" fill="black"/>
<path d="M805.51 132.94C801.78 132.94 798.55 133.62 795.8 134.98C793.05 136.34 790.941 138.31 789.461 140.88C787.981 143.45 787.24 146.6 787.24 150.33V151.84H778.73V162.22H787.24V200.09H798.86V162.22H809.591V151.84H798.86V150.33C798.86 147.85 799.57 146.03 800.99 144.88C802.41 143.73 804.421 143.15 807.021 143.15C807.431 143.15 807.891 143.17 808.391 143.19C808.891 143.22 809.441 143.29 810.031 143.41V133.39C809.441 133.27 808.71 133.17 807.86 133.08C807 132.99 806.22 132.95 805.51 132.95V132.94Z" fill="white"/>
<path d="M843.981 152.94C840.961 151.49 837.471 150.77 833.511 150.77C830.261 150.77 827.241 151.3 824.461 152.37C821.681 153.43 819.271 154.9 817.231 156.76C815.191 158.62 813.701 160.83 812.751 163.37L822.241 167.98C823.131 165.85 824.531 164.11 826.451 162.75C828.371 161.39 830.571 160.71 833.061 160.71C835.721 160.71 837.851 161.41 839.451 162.79C841.051 164.18 841.841 165.91 841.841 167.98V169.54L827.561 171.88C823.771 172.47 820.641 173.48 818.161 174.9C815.681 176.32 813.831 178.08 812.621 180.18C811.411 182.28 810.801 184.66 810.801 187.32C810.801 189.98 811.481 192.54 812.841 194.64C814.201 196.74 816.141 198.35 818.651 199.47C821.161 200.59 824.101 201.16 827.481 201.16C830.141 201.16 832.551 200.81 834.711 200.1C836.871 199.39 838.821 198.33 840.561 196.91C841.271 196.33 841.931 195.69 842.561 195.02V200.11H853.561V168C853.561 164.63 852.721 161.64 851.031 159.04C849.341 156.44 846.991 154.41 843.981 152.96V152.94ZM840.341 186.42C839.331 188.25 837.901 189.69 836.041 190.72C834.181 191.76 832.031 192.27 829.611 192.27C827.721 192.27 826.141 191.78 824.861 190.81C823.591 189.83 822.951 188.52 822.951 186.86C822.951 185.2 823.511 183.77 824.641 182.74C825.761 181.71 827.481 180.98 829.781 180.57L841.841 178.43V180.48C841.841 182.61 841.341 184.59 840.331 186.42H840.341Z" fill="white"/>
<path d="M878.201 163.32C880.181 162.11 882.441 161.5 884.991 161.5C887.711 161.5 890.121 162.22 892.221 163.67C894.321 165.12 895.811 167.08 896.701 169.57L906.901 165.05C905.951 162.21 904.401 159.73 902.241 157.6C900.081 155.47 897.521 153.8 894.571 152.59C891.611 151.38 888.421 150.77 884.991 150.77C880.141 150.77 875.811 151.86 872.001 154.05C868.191 156.24 865.181 159.22 863.001 163.01C860.811 166.79 859.721 171.08 859.721 175.87C859.721 180.66 860.831 184.96 863.051 188.77C865.271 192.58 868.271 195.6 872.051 197.82C875.831 200.04 880.151 201.15 885.001 201.15C888.491 201.15 891.711 200.54 894.671 199.33C897.631 198.12 900.171 196.43 902.301 194.27C904.431 192.11 905.971 189.67 906.911 186.95L896.711 182.34C895.761 184.82 894.271 186.8 892.231 188.28C890.191 189.76 887.781 190.5 885.001 190.5C882.461 190.5 880.191 189.88 878.211 188.64C876.231 187.4 874.681 185.68 873.551 183.5C872.431 181.31 871.861 178.8 871.861 175.96C871.861 173.12 872.421 170.68 873.551 168.47C874.671 166.25 876.221 164.54 878.211 163.33L878.201 163.32Z" fill="white"/>
<path d="M937.571 190.41C935.681 190.41 934.121 190.11 932.911 189.52C931.701 188.93 930.811 188.07 930.251 186.95C929.691 185.83 929.411 184.47 929.411 182.87V162.2H940.501V151.82H929.411V140.82H917.701V144.55C917.701 146.92 917.061 148.72 915.791 149.96C914.521 151.2 912.701 151.82 910.341 151.82H909.451V162.2H917.701V183.49C917.701 188.93 919.211 193.14 922.221 196.13C925.241 199.12 929.461 200.61 934.901 200.61C935.791 200.61 936.761 200.55 937.831 200.43C938.891 200.31 939.841 200.19 940.671 200.08V190.15C940.141 190.21 939.591 190.27 939.031 190.33C938.471 190.39 937.981 190.42 937.571 190.42V190.41Z" fill="white"/>
<path d="M970.17 172.41L962.45 170.1C961.33 169.75 960.34 169.36 959.48 168.95C958.62 168.54 957.96 168.01 957.48 167.35C957.01 166.7 956.77 165.96 956.77 165.13C956.77 163.65 957.33 162.48 958.46 161.63C959.58 160.77 961.12 160.34 963.07 160.34C965.49 160.34 967.68 160.98 969.63 162.25C971.58 163.52 972.97 165.25 973.8 167.44L982.67 163.27C981.19 159.31 978.71 156.23 975.22 154.05C971.73 151.86 967.71 150.77 963.16 150.77C959.67 150.77 956.58 151.39 953.89 152.63C951.2 153.87 949.1 155.6 947.59 157.82C946.08 160.04 945.33 162.62 945.33 165.58C945.33 168.89 946.38 171.77 948.48 174.23C950.58 176.68 953.64 178.47 957.66 179.6L965.55 181.82C966.61 182.12 967.56 182.49 968.39 182.93C969.22 183.37 969.88 183.91 970.39 184.53C970.89 185.15 971.14 185.94 971.14 186.88C971.14 188.42 970.52 189.66 969.28 190.61C968.04 191.56 966.38 192.03 964.31 192.03C961.59 192.03 959.12 191.26 956.9 189.72C954.68 188.18 952.95 186.05 951.71 183.33L942.93 187.5C944.41 191.7 947.05 195.03 950.87 197.48C954.68 199.93 959.16 201.16 964.31 201.16C967.98 201.16 971.17 200.54 973.89 199.3C976.61 198.06 978.74 196.33 980.28 194.11C981.82 191.89 982.59 189.34 982.59 186.44C982.59 183.01 981.51 180.11 979.35 177.75C977.19 175.39 974.13 173.61 970.17 172.43V172.41Z" fill="white"/>
<path d="M258.501 154.05C254.661 151.86 250.341 150.77 245.551 150.77C240.761 150.77 236.531 151.86 232.691 154.05C228.851 156.24 225.771 159.22 223.471 163.01C221.161 166.79 220.011 171.11 220.011 175.96C220.011 180.81 221.161 185.13 223.471 188.91C225.781 192.69 228.861 195.68 232.741 197.87C236.611 200.06 240.881 201.15 245.561 201.15C250.241 201.15 254.581 200.06 258.421 197.87C262.261 195.68 265.341 192.7 267.641 188.91C269.951 185.13 271.101 180.81 271.101 175.96C271.101 171.11 269.961 166.72 267.691 162.97C265.411 159.22 262.351 156.24 258.511 154.06L258.501 154.05ZM257.211 183.45C256.061 185.67 254.491 187.4 252.511 188.64C250.531 189.88 248.211 190.5 245.551 190.5C242.891 190.5 240.641 189.88 238.631 188.64C236.621 187.4 235.041 185.67 233.881 183.45C232.731 181.23 232.151 178.74 232.151 175.96C232.151 173.18 232.731 170.7 233.881 168.51C235.031 166.32 236.611 164.61 238.631 163.37C240.641 162.13 242.951 161.51 245.551 161.51C248.151 161.51 250.531 162.13 252.511 163.37C254.491 164.61 256.061 166.33 257.211 168.51C258.361 170.7 258.941 173.18 258.941 175.96C258.941 178.74 258.361 181.24 257.211 183.45Z" fill="white"/>
<path d="M316.201 154.14C312.531 151.89 308.421 150.77 303.871 150.77C300.151 150.77 296.861 151.49 294.031 152.94C291.761 154.1 289.871 155.64 288.351 157.54V151.83H277.351V217.82H289.061V195.45C290.481 196.96 292.181 198.19 294.161 199.11C297.091 200.47 300.291 201.15 303.781 201.15C308.451 201.15 312.621 200.04 316.291 197.82C319.961 195.6 322.851 192.57 324.981 188.73C327.111 184.89 328.171 180.63 328.171 175.96C328.171 171.29 327.091 166.97 324.931 163.19C322.771 159.41 319.861 156.39 316.191 154.14H316.201ZM314.341 183.5C313.161 185.69 311.551 187.4 309.511 188.64C307.471 189.88 305.121 190.5 302.461 190.5C299.801 190.5 297.631 189.88 295.591 188.64C293.551 187.4 291.951 185.68 290.801 183.5C289.651 181.31 289.071 178.8 289.071 175.96C289.071 173.12 289.651 170.7 290.801 168.51C291.951 166.32 293.551 164.61 295.591 163.37C297.631 162.13 299.921 161.51 302.461 161.51C305.001 161.51 307.471 162.13 309.511 163.37C311.551 164.61 313.161 166.33 314.341 168.51C315.521 170.7 316.111 173.18 316.111 175.96C316.111 178.74 315.521 181.31 314.341 183.5Z" fill="white"/>
<path d="M373.681 157.77C371.671 155.58 369.231 153.87 366.361 152.63C363.491 151.39 360.171 150.77 356.381 150.77C351.831 150.77 347.751 151.86 344.141 154.05C340.531 156.24 337.671 159.21 335.541 162.96C333.411 166.72 332.351 171.02 332.351 175.86C332.351 180.7 333.381 184.79 335.451 188.63C337.521 192.47 340.431 195.52 344.191 197.77C347.941 200.02 352.311 201.14 357.271 201.14C360.521 201.14 363.541 200.64 366.321 199.63C369.101 198.63 371.491 197.24 373.501 195.46C375.511 193.69 376.991 191.65 377.931 189.34L368.531 184.73C367.471 186.62 366.001 188.13 364.141 189.25C362.281 190.37 360.021 190.94 357.351 190.94C354.681 190.94 352.341 190.32 350.301 189.08C348.261 187.84 346.721 186.08 345.691 183.8C345.071 182.43 344.681 180.94 344.521 179.32H379.261C379.501 178.61 379.661 177.83 379.751 176.97C379.841 176.11 379.881 175.24 379.881 174.35C379.881 171.1 379.351 168.07 378.281 165.26C377.221 162.45 375.681 159.95 373.671 157.77H373.681ZM344.761 170.36C344.961 169.34 345.241 168.4 345.611 167.52C346.591 165.21 348.021 163.44 349.911 162.2C351.801 160.96 353.961 160.34 356.381 160.34C358.801 160.34 361.091 160.96 362.901 162.2C364.701 163.44 366.001 165.13 366.801 167.26C367.161 168.23 367.381 169.27 367.451 170.36H344.751H344.761Z" fill="white"/>
<path d="M420.411 153.07C417.661 151.53 414.511 150.76 410.961 150.76C407.411 150.76 404.531 151.51 401.961 153.02C399.971 154.18 398.431 155.77 397.301 157.76V151.83H386.301V200.08H398.011V171.79C398.011 169.66 398.421 167.83 399.251 166.29C400.081 164.75 401.231 163.57 402.711 162.74C404.191 161.91 405.871 161.5 407.771 161.5C409.671 161.5 411.351 161.91 412.831 162.74C414.311 163.57 415.461 164.75 416.291 166.29C417.121 167.83 417.531 169.66 417.531 171.79V200.08H429.151V169.04C429.151 165.43 428.381 162.25 426.841 159.51C425.301 156.76 423.161 154.62 420.411 153.08V153.07Z" fill="white"/>
<path d="M744.597 115.59L454.415 140.978C446.278 141.689 440.259 148.863 440.971 157L446.154 216.244C446.866 224.381 454.039 230.401 462.177 229.689L752.358 204.301C760.495 203.589 766.515 196.416 765.803 188.278L760.62 129.035C759.908 120.897 752.734 114.878 744.597 115.59Z" fill="#008C8C"/>
<path d="M503.27 185.99C502.52 184.2 501.29 182.59 499.58 181.15C498.95 180.62 498.2 180.14 497.39 179.69C498.07 178.9 498.66 178.09 499.09 177.23C500.23 174.93 500.69 172.57 500.48 170.17C500.18 166.78 499.22 163.96 497.59 161.7C495.95 159.44 493.73 157.79 490.92 156.75C488.11 155.71 484.81 155.35 481.03 155.69L457.82 157.72L462.62 212.61L485.83 210.58C492.21 210.02 497.07 208.09 500.39 204.78C503.71 201.47 505.14 197.11 504.67 191.71C504.49 189.7 504.03 187.79 503.28 186L503.27 185.99ZM470.07 166.29L482.67 165.19C484.44 165.04 485.89 165.42 487.04 166.33C488.18 167.25 488.83 168.54 488.97 170.21C489.12 171.88 488.71 173.26 487.74 174.36C486.77 175.46 485.4 176.09 483.63 176.24L471.03 177.34L470.06 166.29H470.07ZM491.63 198.04C490.37 199.49 488.59 200.31 486.28 200.51L473.16 201.66L471.9 187.29L485.02 186.14C487.33 185.94 489.23 186.44 490.72 187.65C492.21 188.86 493.05 190.54 493.24 192.7C493.42 194.81 492.89 196.59 491.63 198.04Z" fill="white"/>
<path d="M524.38 197.18L523.28 184.58L547.3 182.47L546.43 172.53L522.41 174.63L521.32 162.18L546.81 159.95L545.94 150L509.03 153.23L513.83 208.12L550.74 204.89L549.87 194.94L524.38 197.18Z" fill="white"/>
<path d="M568.831 148L555.061 204.52L567.441 203.44L570.141 191.92L590.261 190.16L594.921 201.04L607.371 199.95L584.001 146.68L568.821 148.01L568.831 148ZM572.451 181.69L577.521 159.91L586.231 180.49L572.451 181.7V181.69Z" fill="white"/>
<path d="M650.901 140.82L639.481 141.82L642.461 175.86C642.651 178.02 642.341 180.02 641.541 181.84C640.731 183.67 639.551 185.15 637.991 186.27C636.431 187.4 634.571 188.05 632.411 188.24C630.301 188.42 628.361 188.1 626.611 187.26C624.851 186.42 623.421 185.18 622.311 183.52C621.201 181.86 620.551 179.95 620.361 177.79L617.381 143.75L605.961 144.75L609.001 179.53C609.351 183.56 610.641 187.07 612.861 190.07C615.081 193.07 617.961 195.33 621.511 196.85C625.061 198.37 628.991 198.94 633.321 198.56C637.641 198.18 641.421 196.94 644.651 194.82C647.881 192.71 650.331 189.98 651.991 186.64C653.651 183.3 654.311 179.62 653.961 175.59L650.921 140.81L650.901 140.82Z" fill="white"/>
<path d="M695.239 136.94L656.189 140.35L657.059 150.3L670.989 149.08L674.919 194.03L686.339 193.03L682.409 148.08L696.109 146.88L695.239 136.94Z" fill="white"/>
<path d="M747.8 132.34L734.76 133.48L725.56 153.63L712.95 135.39L699.91 136.53L720.89 165.88L722.98 189.82L734.4 188.82L732.3 164.8L747.8 132.34Z" fill="white"/>
<path d="M147.021 126.59C152.311 126.59 157.401 127.44 162.171 128.99V117.16C162.171 116.14 161.341 115.31 160.321 115.31H155.251V102.84H163.251C164.601 102.84 165.691 101.75 165.691 100.4C165.691 99.05 164.601 97.96 163.251 97.96H140.651C139.631 97.96 138.801 98.79 138.801 99.81V115.3H133.731C132.711 115.3 131.881 116.13 131.881 117.15V128.98C136.651 127.43 141.741 126.58 147.031 126.58L147.021 126.59Z" fill="#008C8C"/>
<path d="M123.23 218.42L114.52 239.22L125.99 244.03L134.78 223.05C138.7 224.06 142.8 224.6 147.03 224.6C174.08 224.6 196.08 202.6 196.08 175.55H183.65C183.65 195.74 167.22 212.17 147.03 212.17C126.84 212.17 110.41 195.74 110.41 175.55H97.9805C97.9805 193.97 108.19 210.04 123.24 218.42H123.23Z" fill="white"/>
<path d="M98.0605 175.55C98.0605 148.51 119.981 126.59 147.021 126.59C174.061 126.59 195.981 148.51 195.981 175.55H98.0605Z" fill="#82DCFF"/>
</g>
<defs>
<clipPath id="clip0_102_121">
<rect width="1080.64" height="342" fill="white"/>
</clipPath>
</defs>
</svg>
