<svg width="522" height="594" viewBox="0 0 522 594" fill="none" xmlns="http://www.w3.org/2000/svg">
<g clip-path="url(#clip0_102_115)">
<path d="M521.05 0H0V593.99H521.05V0Z" fill="black"/>
<path d="M182.729 427.68C178.999 427.68 175.749 428.36 172.999 429.72C170.239 431.08 168.129 433.05 166.649 435.63C165.169 438.21 164.429 441.36 164.429 445.09V446.6H155.899V457H164.429V494.95H176.069V457H186.819V446.6H176.069V445.09C176.069 442.6 176.779 440.78 178.199 439.62C179.619 438.46 181.639 437.89 184.239 437.89C184.649 437.89 185.109 437.91 185.619 437.93C186.119 437.96 186.669 438.03 187.259 438.15V428.11C186.669 427.99 185.939 427.89 185.079 427.8C184.219 427.71 183.439 427.67 182.729 427.67V427.68Z" fill="#008C8C"/>
<path d="M221.29 447.72C218.27 446.27 214.77 445.54 210.8 445.54C207.54 445.54 204.52 446.07 201.74 447.14C198.95 448.21 196.54 449.67 194.5 451.54C192.46 453.41 190.96 455.61 190.01 458.16L199.52 462.78C200.41 460.65 201.82 458.9 203.74 457.54C205.66 456.18 207.87 455.5 210.36 455.5C213.03 455.5 215.16 456.2 216.76 457.59C218.36 458.98 219.16 460.72 219.16 462.79V464.36L204.85 466.7C201.06 467.29 197.92 468.3 195.43 469.72C192.94 471.14 191.09 472.91 189.88 475.01C188.66 477.11 188.06 479.5 188.06 482.16C188.06 484.82 188.74 487.39 190.1 489.49C191.46 491.59 193.4 493.21 195.92 494.33C198.44 495.45 201.39 496.02 204.76 496.02C207.43 496.02 209.84 495.66 212 494.95C214.16 494.24 216.12 493.17 217.87 491.75C218.58 491.17 219.24 490.53 219.87 489.85V494.95H230.89V462.78C230.89 459.4 230.05 456.41 228.36 453.8C226.67 451.19 224.32 449.16 221.3 447.71L221.29 447.72ZM217.65 481.27C216.64 483.11 215.21 484.54 213.34 485.58C211.47 486.62 209.33 487.14 206.9 487.14C205 487.14 203.42 486.65 202.15 485.67C200.88 484.69 200.24 483.37 200.24 481.72C200.24 480.07 200.8 478.62 201.93 477.59C203.05 476.55 204.77 475.83 207.08 475.41L219.17 473.26V475.32C219.17 477.45 218.67 479.44 217.66 481.27H217.65Z" fill="#008C8C"/>
<path d="M255.569 458.11C257.549 456.9 259.819 456.29 262.369 456.29C265.089 456.29 267.509 457.02 269.609 458.47C271.709 459.92 273.209 461.89 274.099 464.38L284.319 459.85C283.369 457.01 281.819 454.52 279.649 452.38C277.489 450.25 274.919 448.57 271.959 447.36C268.999 446.15 265.799 445.54 262.359 445.54C257.499 445.54 253.159 446.64 249.339 448.83C245.519 451.02 242.509 454.02 240.319 457.81C238.129 461.6 237.029 465.9 237.029 470.7C237.029 475.5 238.139 479.81 240.359 483.63C242.579 487.45 245.589 490.47 249.379 492.69C253.169 494.91 257.499 496.02 262.349 496.02C265.839 496.02 269.069 495.41 272.039 494.2C274.999 492.99 277.549 491.3 279.679 489.13C281.809 486.97 283.349 484.52 284.299 481.8L274.079 477.18C273.129 479.67 271.639 481.65 269.589 483.13C267.549 484.61 265.129 485.35 262.349 485.35C259.799 485.35 257.539 484.73 255.549 483.48C253.559 482.24 252.009 480.52 250.879 478.33C249.749 476.14 249.189 473.62 249.189 470.78C249.189 467.94 249.749 465.49 250.879 463.27C251.999 461.05 253.559 459.33 255.549 458.12L255.569 458.11Z" fill="#008C8C"/>
<path d="M315.06 485.26C313.16 485.26 311.61 484.96 310.39 484.37C309.17 483.78 308.29 482.92 307.72 481.79C307.16 480.67 306.88 479.3 306.88 477.7V456.99H317.99V446.59H306.88V435.57H295.15V439.3C295.15 441.67 294.51 443.48 293.24 444.72C291.97 445.96 290.14 446.59 287.77 446.59H286.88V456.99H295.14V478.32C295.14 483.77 296.65 487.99 299.67 490.98C302.69 493.97 306.93 495.47 312.38 495.47C313.27 495.47 314.25 495.41 315.31 495.29C316.38 495.17 317.32 495.05 318.15 494.93V484.98C317.62 485.04 317.07 485.1 316.51 485.16C315.95 485.22 315.46 485.25 315.04 485.25L315.06 485.26Z" fill="#008C8C"/>
<path d="M347.73 467.22L340 464.91C338.87 464.55 337.88 464.17 337.02 463.75C336.16 463.34 335.49 462.8 335.02 462.15C334.55 461.5 334.31 460.76 334.31 459.93C334.31 458.45 334.87 457.28 336 456.42C337.12 455.56 338.67 455.13 340.62 455.13C343.05 455.13 345.24 455.77 347.2 457.04C349.15 458.31 350.55 460.05 351.38 462.24L360.27 458.06C358.79 454.09 356.3 451.01 352.8 448.82C349.3 446.63 345.28 445.53 340.71 445.53C337.21 445.53 334.12 446.15 331.42 447.4C328.72 448.64 326.62 450.38 325.11 452.6C323.6 454.82 322.84 457.41 322.84 460.38C322.84 463.7 323.89 466.59 325.99 469.04C328.09 471.5 331.16 473.29 335.19 474.42L343.1 476.64C344.17 476.94 345.11 477.31 345.94 477.75C346.77 478.19 347.44 478.73 347.94 479.35C348.44 479.97 348.7 480.76 348.7 481.7C348.7 483.24 348.08 484.49 346.83 485.43C345.59 486.38 343.93 486.85 341.85 486.85C339.12 486.85 336.65 486.08 334.43 484.54C332.21 483 330.48 480.87 329.23 478.14L320.43 482.32C321.91 486.53 324.56 489.86 328.38 492.32C332.2 494.78 336.69 496.01 341.84 496.01C345.51 496.01 348.71 495.39 351.44 494.14C354.16 492.9 356.3 491.16 357.84 488.94C359.38 486.72 360.15 484.16 360.15 481.25C360.15 477.81 359.07 474.91 356.91 472.54C354.75 470.17 351.68 468.39 347.71 467.21L347.73 467.22Z" fill="#008C8C"/>
<path d="M193.639 260.3C189.789 258.11 185.459 257.01 180.669 257.01C175.879 257.01 171.629 258.11 167.779 260.3C163.929 262.49 160.849 265.49 158.539 269.28C156.229 273.07 155.069 277.4 155.069 282.25C155.069 287.1 156.229 291.43 158.539 295.22C160.849 299.01 163.949 302 167.829 304.2C171.709 306.39 175.989 307.49 180.669 307.49C185.349 307.49 189.699 306.39 193.559 304.2C197.409 302.01 200.489 299.02 202.799 295.22C205.109 291.43 206.269 287.1 206.269 282.25C206.269 277.4 205.129 272.99 202.849 269.23C200.569 265.47 197.499 262.49 193.649 260.3H193.639ZM192.349 289.76C191.189 291.98 189.619 293.71 187.639 294.96C185.649 296.2 183.329 296.83 180.659 296.83C177.989 296.83 175.739 296.21 173.729 294.96C171.709 293.72 170.129 291.98 168.979 289.76C167.819 287.54 167.249 285.04 167.249 282.25C167.249 279.46 167.829 276.98 168.979 274.78C170.139 272.59 171.719 270.87 173.729 269.63C175.739 268.39 178.049 267.76 180.659 267.76C183.269 267.76 185.649 268.38 187.639 269.63C189.619 270.87 191.189 272.59 192.349 274.78C193.509 276.97 194.079 279.46 194.079 282.25C194.079 285.04 193.499 287.54 192.349 289.76Z" fill="#008C8C"/>
<path d="M251.46 260.39C247.79 258.14 243.67 257.01 239.11 257.01C235.38 257.01 232.09 257.74 229.25 259.19C226.97 260.35 225.08 261.89 223.56 263.8V258.08H212.54V324.2H224.27V301.78C225.7 303.3 227.4 304.52 229.38 305.45C232.31 306.81 235.53 307.49 239.02 307.49C243.7 307.49 247.88 306.38 251.55 304.16C255.22 301.94 258.13 298.9 260.26 295.05C262.39 291.2 263.46 286.93 263.46 282.25C263.46 277.57 262.38 273.24 260.22 269.45C258.06 265.66 255.14 262.64 251.47 260.39H251.46ZM249.59 289.81C248.4 292 246.79 293.72 244.75 294.96C242.71 296.2 240.35 296.83 237.68 296.83C235.01 296.83 232.84 296.21 230.79 294.96C228.75 293.72 227.15 292 225.99 289.81C224.83 287.62 224.26 285.1 224.26 282.26C224.26 279.42 224.84 276.99 225.99 274.79C227.15 272.6 228.74 270.88 230.79 269.64C232.83 268.4 235.13 267.77 237.68 267.77C240.23 267.77 242.7 268.39 244.75 269.64C246.8 270.89 248.41 272.6 249.59 274.79C250.77 276.98 251.37 279.47 251.37 282.26C251.37 285.05 250.78 287.62 249.59 289.81Z" fill="#008C8C"/>
<path d="M309.05 264.03C307.04 261.84 304.59 260.12 301.72 258.88C298.85 257.64 295.51 257.01 291.72 257.01C287.16 257.01 283.07 258.11 279.46 260.3C275.85 262.49 272.97 265.47 270.84 269.23C268.71 272.99 267.64 277.3 267.64 282.16C267.64 287.02 268.68 291.11 270.75 294.96C272.82 298.81 275.74 301.86 279.5 304.11C283.26 306.36 287.63 307.49 292.61 307.49C295.87 307.49 298.89 306.99 301.67 305.98C304.45 304.97 306.85 303.58 308.87 301.8C310.88 300.02 312.37 297.98 313.31 295.67L303.89 291.05C302.82 292.95 301.36 294.46 299.49 295.58C297.62 296.71 295.36 297.27 292.69 297.27C290.02 297.27 287.67 296.65 285.62 295.4C283.58 294.16 282.03 292.39 281 290.11C280.38 288.74 279.99 287.24 279.82 285.62H314.63C314.87 284.91 315.03 284.12 315.12 283.27C315.21 282.41 315.25 281.54 315.25 280.65C315.25 277.39 314.72 274.36 313.65 271.54C312.58 268.73 311.04 266.22 309.03 264.03H309.05ZM280.07 276.65C280.27 275.63 280.55 274.68 280.92 273.81C281.9 271.5 283.33 269.72 285.23 268.48C287.13 267.24 289.29 266.61 291.72 266.61C294.15 266.61 296.44 267.23 298.25 268.48C300.06 269.72 301.36 271.41 302.16 273.55C302.53 274.52 302.74 275.56 302.81 276.66H280.07V276.65Z" fill="#008C8C"/>
<path d="M355.87 259.32C353.11 257.78 349.96 257.01 346.41 257.01C342.86 257.01 339.97 257.77 337.39 259.28C335.4 260.45 333.85 262.03 332.72 264.03V258.08H321.7V306.43H333.43V278.08C333.43 275.95 333.84 274.11 334.67 272.57C335.5 271.03 336.65 269.85 338.14 269.02C339.62 268.19 341.31 267.78 343.21 267.78C345.11 267.78 346.79 268.2 348.28 269.02C349.76 269.85 350.92 271.03 351.75 272.57C352.58 274.11 352.99 275.95 352.99 278.08V306.43H364.63V275.33C364.63 271.72 363.86 268.53 362.32 265.78C360.78 263.03 358.63 260.88 355.88 259.34L355.87 259.32Z" fill="#008C8C"/>
<path d="M147.77 385.3C146.28 384.1 144.38 383.59 142.07 383.79L128.95 384.94L130.21 399.31L143.33 398.16C145.64 397.96 147.42 397.14 148.68 395.69C149.94 394.24 150.48 392.46 150.29 390.35C150.1 388.19 149.26 386.51 147.77 385.3Z" fill="#008C8C"/>
<path d="M144.79 372.01C145.76 370.91 146.17 369.53 146.02 367.86C145.87 366.19 145.23 364.9 144.09 363.98C142.94 363.07 141.49 362.69 139.72 362.84L127.12 363.94L128.09 374.99L140.69 373.89C142.46 373.73 143.83 373.11 144.8 372.01H144.79Z" fill="#008C8C"/>
<path d="M229.51 379.33L243.29 378.13L234.57 357.55L229.51 379.33Z" fill="#008C8C"/>
<path d="M422.85 385.93L417.67 326.69C416.96 318.55 409.78 312.53 401.64 313.24L111.47 338.63C103.33 339.34 97.3098 346.52 98.0198 354.66L103.2 413.9C103.91 422.04 111.09 428.06 119.23 427.35L409.4 401.96C417.54 401.25 423.56 394.07 422.85 385.93ZM157.44 402.42C154.11 405.73 149.26 407.66 142.88 408.22L119.67 410.25L114.87 355.36L138.08 353.33C141.86 353 145.16 353.35 147.97 354.39C150.78 355.43 153.01 357.08 154.64 359.34C156.27 361.6 157.24 364.42 157.53 367.81C157.74 370.22 157.28 372.57 156.14 374.87C155.71 375.74 155.12 376.55 154.44 377.33C155.25 377.78 156 378.26 156.63 378.79C158.34 380.23 159.57 381.84 160.32 383.63C161.07 385.42 161.53 387.32 161.71 389.34C162.18 394.75 160.76 399.1 157.43 402.41L157.44 402.42ZM170.89 405.77L166.09 350.88L203 347.65L203.87 357.6L178.38 359.83L179.47 372.28L203.49 370.18L204.36 380.13L180.34 382.23L181.44 394.83L206.93 392.6L207.8 402.55L170.88 405.78L170.89 405.77ZM251.99 398.67L247.33 387.79L227.21 389.55L224.51 401.07L212.13 402.15L225.9 345.63L241.08 344.3L264.45 397.57L252 398.66L251.99 398.67ZM309.03 384.29C307.36 387.63 304.92 390.36 301.69 392.47C298.46 394.58 294.68 395.83 290.36 396.21C286.04 396.59 282.1 396.02 278.55 394.5C275 392.98 272.12 390.72 269.9 387.72C267.68 384.72 266.4 381.21 266.04 377.18L263 342.4L274.42 341.4L277.4 375.44C277.59 377.6 278.24 379.51 279.35 381.17C280.46 382.83 281.9 384.08 283.65 384.91C285.41 385.75 287.34 386.07 289.45 385.89C291.61 385.7 293.47 385.04 295.03 383.92C296.59 382.79 297.77 381.32 298.58 379.49C299.39 377.66 299.69 375.67 299.5 373.51L296.52 339.47L307.94 338.47L310.98 373.25C311.33 377.28 310.68 380.96 309.01 384.3L309.03 384.29ZM343.4 390.68L331.98 391.68L328.05 346.73L314.12 347.95L313.25 338L352.3 334.58L353.17 344.53L339.47 345.73L343.4 390.68ZM391.46 386.48L380.04 387.48L377.94 363.53L356.96 334.18L370 333.04L382.61 351.28L391.8 331.13L404.84 329.99L389.34 362.46L391.44 386.48H391.46Z" fill="#008C8C"/>
<path d="M147.77 385.3C146.28 384.1 144.38 383.59 142.07 383.79L128.95 384.94L130.21 399.31L143.33 398.16C145.64 397.96 147.42 397.14 148.68 395.69C149.94 394.24 150.48 392.46 150.29 390.35C150.1 388.19 149.26 386.51 147.77 385.3Z" fill="#008C8C"/>
<path d="M144.79 372.01C145.76 370.91 146.17 369.53 146.02 367.86C145.87 366.19 145.23 364.9 144.09 363.98C142.94 363.07 141.49 362.69 139.72 362.84L127.12 363.94L128.09 374.99L140.69 373.89C142.46 373.73 143.83 373.11 144.8 372.01H144.79Z" fill="#008C8C"/>
<path d="M229.51 379.33L243.29 378.13L234.57 357.55L229.51 379.33Z" fill="#008C8C"/>
<path d="M422.85 385.93L417.67 326.69C416.96 318.55 409.78 312.53 401.64 313.24L111.47 338.63C103.33 339.34 97.3098 346.52 98.0198 354.66L103.2 413.9C103.91 422.04 111.09 428.06 119.23 427.35L409.4 401.96C417.54 401.25 423.56 394.07 422.85 385.93ZM157.44 402.42C154.11 405.73 149.26 407.66 142.88 408.22L119.67 410.25L114.87 355.36L138.08 353.33C141.86 353 145.16 353.35 147.97 354.39C150.78 355.43 153.01 357.08 154.64 359.34C156.27 361.6 157.24 364.42 157.53 367.81C157.74 370.22 157.28 372.57 156.14 374.87C155.71 375.74 155.12 376.55 154.44 377.33C155.25 377.78 156 378.26 156.63 378.79C158.34 380.23 159.57 381.84 160.32 383.63C161.07 385.42 161.53 387.32 161.71 389.34C162.18 394.75 160.76 399.1 157.43 402.41L157.44 402.42ZM170.89 405.77L166.09 350.88L203 347.65L203.87 357.6L178.38 359.83L179.47 372.28L203.49 370.18L204.36 380.13L180.34 382.23L181.44 394.83L206.93 392.6L207.8 402.55L170.88 405.78L170.89 405.77ZM251.99 398.67L247.33 387.79L227.21 389.55L224.51 401.07L212.13 402.15L225.9 345.63L241.08 344.3L264.45 397.57L252 398.66L251.99 398.67ZM309.03 384.29C307.36 387.63 304.92 390.36 301.69 392.47C298.46 394.58 294.68 395.83 290.36 396.21C286.04 396.59 282.1 396.02 278.55 394.5C275 392.98 272.12 390.72 269.9 387.72C267.68 384.72 266.4 381.21 266.04 377.18L263 342.4L274.42 341.4L277.4 375.44C277.59 377.6 278.24 379.51 279.35 381.17C280.46 382.83 281.9 384.08 283.65 384.91C285.41 385.75 287.34 386.07 289.45 385.89C291.61 385.7 293.47 385.04 295.03 383.92C296.59 382.79 297.77 381.32 298.58 379.49C299.39 377.66 299.69 375.67 299.5 373.51L296.52 339.47L307.94 338.47L310.98 373.25C311.33 377.28 310.68 380.96 309.01 384.3L309.03 384.29ZM343.4 390.68L331.98 391.68L328.05 346.73L314.12 347.95L313.25 338L352.3 334.58L353.17 344.53L339.47 345.73L343.4 390.68ZM391.46 386.48L380.04 387.48L377.94 363.53L356.96 334.18L370 333.04L382.61 351.28L391.8 331.13L404.84 329.99L389.34 362.46L391.44 386.48H391.46Z" fill="#008C8C"/>
<path d="M260.44 126.59C265.73 126.59 270.82 127.44 275.59 128.99V117.16C275.59 116.14 274.76 115.31 273.74 115.31H268.67V102.84H276.67C278.02 102.84 279.11 101.75 279.11 100.4C279.11 99.05 278.02 97.96 276.67 97.96H254.07C253.05 97.96 252.22 98.79 252.22 99.81V115.3H247.15C246.13 115.3 245.3 116.13 245.3 117.15V128.98C250.07 127.43 255.16 126.58 260.45 126.58L260.44 126.59Z" fill="#008C8C"/>
<path d="M236.649 218.42L227.939 239.22L239.409 244.03L248.199 223.05C252.119 224.06 256.219 224.6 260.449 224.6C287.499 224.6 309.499 202.6 309.499 175.55H297.069C297.069 195.74 280.639 212.17 260.449 212.17C240.259 212.17 223.829 195.74 223.829 175.55H211.399C211.399 193.97 221.609 210.04 236.659 218.42H236.649Z" fill="#008C8C"/>
<path d="M211.479 175.55C211.479 148.51 233.399 126.59 260.439 126.59C287.479 126.59 309.399 148.51 309.399 175.55H211.479Z" fill="#008C8C"/>
</g>
<defs>
<clipPath id="clip0_102_115">
<rect width="521.05" height="593.99" fill="white"/>
</clipPath>
</defs>
</svg>
