<svg width="1024" height="500" viewBox="0 0 1024 500" fill="none" xmlns="http://www.w3.org/2000/svg">
<g clip-path="url(#clip0_202_2314)">
<rect width="1024" height="500" fill="white"/>
<g clip-path="url(#clip1_202_2314)">
<path d="M777.51 211.94C773.78 211.94 770.55 212.62 767.8 213.98C765.05 215.34 762.941 217.31 761.461 219.88C759.981 222.45 759.24 225.6 759.24 229.33V230.84H750.73V241.22H759.24V279.09H770.86V241.22H781.591V230.84H770.86V229.33C770.86 226.85 771.57 225.03 772.99 223.88C774.41 222.73 776.421 222.15 779.021 222.15C779.431 222.15 779.891 222.17 780.391 222.19C780.891 222.22 781.441 222.29 782.031 222.41V212.39C781.441 212.27 780.71 212.17 779.86 212.08C779 211.99 778.22 211.95 777.51 211.95V211.94Z" fill="black"/>
<path d="M815.981 231.94C812.961 230.49 809.471 229.77 805.511 229.77C802.261 229.77 799.241 230.3 796.461 231.37C793.681 232.43 791.271 233.9 789.231 235.76C787.191 237.62 785.701 239.83 784.751 242.37L794.241 246.98C795.131 244.85 796.531 243.11 798.451 241.75C800.371 240.39 802.571 239.71 805.061 239.71C807.721 239.71 809.851 240.41 811.451 241.79C813.051 243.18 813.841 244.91 813.841 246.98V248.54L799.561 250.88C795.771 251.47 792.641 252.48 790.161 253.9C787.681 255.32 785.831 257.08 784.621 259.18C783.411 261.28 782.801 263.66 782.801 266.32C782.801 268.98 783.481 271.54 784.841 273.64C786.201 275.74 788.141 277.35 790.651 278.47C793.161 279.59 796.101 280.16 799.481 280.16C802.141 280.16 804.551 279.81 806.711 279.1C808.871 278.39 810.821 277.33 812.561 275.91C813.271 275.33 813.931 274.69 814.561 274.02V279.11H825.561V247C825.561 243.63 824.721 240.64 823.031 238.04C821.341 235.44 818.991 233.41 815.981 231.96V231.94ZM812.341 265.42C811.331 267.25 809.901 268.69 808.041 269.72C806.181 270.76 804.031 271.27 801.611 271.27C799.721 271.27 798.141 270.78 796.861 269.81C795.591 268.83 794.951 267.52 794.951 265.86C794.951 264.2 795.511 262.77 796.641 261.74C797.761 260.71 799.481 259.98 801.781 259.57L813.841 257.43V259.48C813.841 261.61 813.341 263.59 812.331 265.42H812.341Z" fill="black"/>
<path d="M850.201 242.32C852.181 241.11 854.441 240.5 856.991 240.5C859.711 240.5 862.121 241.22 864.221 242.67C866.321 244.12 867.811 246.08 868.701 248.57L878.901 244.05C877.951 241.21 876.401 238.73 874.241 236.6C872.081 234.47 869.521 232.8 866.571 231.59C863.611 230.38 860.421 229.77 856.991 229.77C852.141 229.77 847.811 230.86 844.001 233.05C840.191 235.24 837.181 238.22 835.001 242.01C832.811 245.79 831.721 250.08 831.721 254.87C831.721 259.66 832.831 263.96 835.051 267.77C837.271 271.58 840.271 274.6 844.051 276.82C847.831 279.04 852.151 280.15 857.001 280.15C860.491 280.15 863.711 279.54 866.671 278.33C869.631 277.12 872.171 275.43 874.301 273.27C876.431 271.11 877.971 268.67 878.911 265.95L868.711 261.34C867.761 263.82 866.271 265.8 864.231 267.28C862.191 268.76 859.781 269.5 857.001 269.5C854.461 269.5 852.191 268.88 850.211 267.64C848.231 266.4 846.681 264.68 845.551 262.5C844.431 260.31 843.861 257.8 843.861 254.96C843.861 252.12 844.421 249.68 845.551 247.47C846.671 245.25 848.221 243.54 850.211 242.33L850.201 242.32Z" fill="black"/>
<path d="M909.57 269.41C907.68 269.41 906.12 269.11 904.91 268.52C903.7 267.93 902.81 267.07 902.25 265.95C901.69 264.83 901.41 263.47 901.41 261.87V241.2H912.5V230.82H901.41V219.82H889.7V223.55C889.7 225.92 889.06 227.72 887.79 228.96C886.52 230.2 884.7 230.82 882.34 230.82H881.45V241.2H889.7V262.49C889.7 267.93 891.21 272.14 894.22 275.13C897.24 278.12 901.46 279.61 906.9 279.61C907.79 279.61 908.76 279.55 909.83 279.43C910.89 279.31 911.84 279.19 912.67 279.08V269.15C912.14 269.21 911.59 269.27 911.03 269.33C910.47 269.39 909.98 269.42 909.57 269.42V269.41Z" fill="black"/>
<path d="M942.171 251.41L934.451 249.1C933.331 248.75 932.341 248.36 931.481 247.95C930.621 247.54 929.961 247.01 929.481 246.35C929.011 245.7 928.771 244.96 928.771 244.13C928.771 242.65 929.331 241.48 930.461 240.63C931.581 239.77 933.121 239.34 935.071 239.34C937.491 239.34 939.681 239.98 941.631 241.25C943.581 242.52 944.971 244.25 945.801 246.44L954.671 242.27C953.191 238.31 950.711 235.23 947.221 233.05C943.731 230.86 939.711 229.77 935.161 229.77C931.671 229.77 928.581 230.39 925.891 231.63C923.201 232.87 921.101 234.6 919.591 236.82C918.081 239.04 917.331 241.62 917.331 244.58C917.331 247.89 918.381 250.77 920.481 253.23C922.581 255.68 925.641 257.47 929.661 258.6L937.551 260.82C938.611 261.12 939.561 261.49 940.391 261.93C941.221 262.37 941.881 262.91 942.391 263.53C942.891 264.15 943.141 264.94 943.141 265.88C943.141 267.42 942.521 268.66 941.281 269.61C940.041 270.56 938.381 271.03 936.311 271.03C933.591 271.03 931.121 270.26 928.901 268.72C926.681 267.18 924.951 265.05 923.711 262.33L914.931 266.5C916.411 270.7 919.051 274.03 922.871 276.48C926.681 278.93 931.161 280.16 936.311 280.16C939.981 280.16 943.171 279.54 945.891 278.3C948.611 277.06 950.741 275.33 952.281 273.11C953.821 270.89 954.591 268.34 954.591 265.44C954.591 262.01 953.511 259.11 951.351 256.75C949.191 254.39 946.131 252.61 942.171 251.43V251.41Z" fill="black"/>
<path d="M230.501 233.05C226.661 230.86 222.341 229.77 217.551 229.77C212.761 229.77 208.531 230.86 204.691 233.05C200.851 235.24 197.771 238.22 195.471 242.01C193.161 245.79 192.011 250.11 192.011 254.96C192.011 259.81 193.161 264.13 195.471 267.91C197.781 271.69 200.861 274.68 204.741 276.87C208.611 279.06 212.881 280.15 217.561 280.15C222.241 280.15 226.581 279.06 230.421 276.87C234.261 274.68 237.341 271.7 239.641 267.91C241.951 264.13 243.101 259.81 243.101 254.96C243.101 250.11 241.961 245.72 239.691 241.97C237.411 238.22 234.351 235.24 230.511 233.06L230.501 233.05ZM229.211 262.45C228.061 264.67 226.491 266.4 224.511 267.64C222.531 268.88 220.211 269.5 217.551 269.5C214.891 269.5 212.641 268.88 210.631 267.64C208.621 266.4 207.041 264.67 205.881 262.45C204.731 260.23 204.151 257.74 204.151 254.96C204.151 252.18 204.731 249.7 205.881 247.51C207.031 245.32 208.611 243.61 210.631 242.37C212.641 241.13 214.951 240.51 217.551 240.51C220.151 240.51 222.531 241.13 224.511 242.37C226.491 243.61 228.061 245.33 229.211 247.51C230.361 249.7 230.941 252.18 230.941 254.96C230.941 257.74 230.361 260.24 229.211 262.45Z" fill="black"/>
<path d="M288.201 233.14C284.531 230.89 280.421 229.77 275.871 229.77C272.151 229.77 268.861 230.49 266.031 231.94C263.761 233.1 261.871 234.64 260.351 236.54V230.83H249.351V296.82H261.061V274.45C262.481 275.96 264.181 277.19 266.161 278.11C269.091 279.47 272.291 280.15 275.781 280.15C280.451 280.15 284.621 279.04 288.291 276.82C291.961 274.6 294.851 271.57 296.981 267.73C299.111 263.89 300.171 259.63 300.171 254.96C300.171 250.29 299.091 245.97 296.931 242.19C294.771 238.41 291.861 235.39 288.191 233.14H288.201ZM286.341 262.5C285.161 264.69 283.551 266.4 281.511 267.64C279.471 268.88 277.121 269.5 274.461 269.5C271.801 269.5 269.631 268.88 267.591 267.64C265.551 266.4 263.951 264.68 262.801 262.5C261.651 260.31 261.071 257.8 261.071 254.96C261.071 252.12 261.651 249.7 262.801 247.51C263.951 245.32 265.551 243.61 267.591 242.37C269.631 241.13 271.921 240.51 274.461 240.51C277.001 240.51 279.471 241.13 281.511 242.37C283.551 243.61 285.161 245.33 286.341 247.51C287.521 249.7 288.111 252.18 288.111 254.96C288.111 257.74 287.521 260.31 286.341 262.5Z" fill="black"/>
<path d="M345.681 236.77C343.671 234.58 341.231 232.87 338.361 231.63C335.491 230.39 332.171 229.77 328.381 229.77C323.831 229.77 319.751 230.86 316.141 233.05C312.531 235.24 309.671 238.21 307.541 241.96C305.411 245.72 304.351 250.02 304.351 254.86C304.351 259.7 305.381 263.79 307.451 267.63C309.521 271.47 312.431 274.52 316.191 276.77C319.941 279.02 324.311 280.14 329.271 280.14C332.521 280.14 335.541 279.64 338.321 278.63C341.101 277.63 343.491 276.24 345.501 274.46C347.511 272.69 348.991 270.65 349.931 268.34L340.531 263.73C339.471 265.62 338.001 267.13 336.141 268.25C334.281 269.37 332.021 269.94 329.351 269.94C326.681 269.94 324.341 269.32 322.301 268.08C320.261 266.84 318.721 265.08 317.691 262.8C317.071 261.43 316.681 259.94 316.521 258.32H351.261C351.501 257.61 351.661 256.83 351.751 255.97C351.841 255.11 351.881 254.24 351.881 253.35C351.881 250.1 351.351 247.07 350.281 244.26C349.221 241.45 347.681 238.95 345.671 236.77H345.681ZM316.761 249.36C316.961 248.34 317.241 247.4 317.611 246.52C318.591 244.21 320.021 242.44 321.911 241.2C323.801 239.96 325.961 239.34 328.381 239.34C330.801 239.34 333.091 239.96 334.901 241.2C336.701 242.44 338.001 244.13 338.801 246.26C339.161 247.23 339.381 248.27 339.451 249.36H316.751H316.761Z" fill="black"/>
<path d="M392.411 232.07C389.661 230.53 386.511 229.76 382.961 229.76C379.411 229.76 376.531 230.51 373.961 232.02C371.971 233.18 370.431 234.77 369.301 236.76V230.83H358.301V279.08H370.011V250.79C370.011 248.66 370.421 246.83 371.251 245.29C372.081 243.75 373.231 242.57 374.711 241.74C376.191 240.91 377.871 240.5 379.771 240.5C381.671 240.5 383.351 240.91 384.831 241.74C386.311 242.57 387.461 243.75 388.291 245.29C389.121 246.83 389.531 248.66 389.531 250.79V279.08H401.151V248.04C401.151 244.43 400.381 241.25 398.841 238.51C397.301 235.76 395.161 233.62 392.411 232.08V232.07Z" fill="black"/>
<path d="M716.597 194.59L426.415 219.978C418.278 220.69 412.259 227.864 412.971 236.001L418.154 295.245C418.866 303.382 426.039 309.401 434.177 308.689L724.358 283.302C732.495 282.59 738.515 275.416 737.803 267.279L732.62 208.035C731.908 199.898 724.734 193.879 716.597 194.59Z" fill="#008C8C"/>
<path d="M475.27 264.991C474.52 263.201 473.29 261.591 471.58 260.151C470.95 259.621 470.2 259.141 469.39 258.691C470.07 257.901 470.66 257.091 471.09 256.231C472.23 253.931 472.69 251.571 472.48 249.171C472.18 245.781 471.22 242.961 469.59 240.701C467.95 238.441 465.73 236.791 462.92 235.751C460.11 234.711 456.81 234.351 453.03 234.691L429.82 236.721L434.62 291.611L457.83 289.581C464.21 289.021 469.07 287.091 472.39 283.781C475.71 280.471 477.14 276.111 476.67 270.711C476.49 268.701 476.03 266.791 475.28 265.001L475.27 264.991ZM442.07 245.291L454.67 244.191C456.44 244.041 457.89 244.421 459.04 245.331C460.18 246.251 460.83 247.541 460.97 249.211C461.12 250.881 460.71 252.271 459.74 253.361C458.77 254.461 457.4 255.091 455.63 255.241L443.03 256.341L442.06 245.291H442.07ZM463.63 277.041C462.37 278.491 460.59 279.311 458.28 279.511L445.16 280.661L443.9 266.291L457.02 265.141C459.33 264.941 461.23 265.441 462.72 266.651C464.21 267.861 465.05 269.541 465.24 271.701C465.42 273.811 464.89 275.591 463.63 277.041Z" fill="white"/>
<path d="M496.38 276.18L495.28 263.58L519.3 261.47L518.43 251.53L494.41 253.63L493.32 241.18L518.81 238.95L517.94 229L481.03 232.23L485.83 287.12L522.74 283.89L521.87 273.94L496.38 276.18Z" fill="white"/>
<path d="M540.831 227L527.061 283.52L539.441 282.44L542.141 270.92L562.261 269.16L566.921 280.04L579.371 278.95L556.001 225.68L540.821 227.01L540.831 227ZM544.451 260.69L549.521 238.91L558.231 259.49L544.451 260.7V260.69Z" fill="white"/>
<path d="M622.9 219.821L611.48 220.821L614.46 254.861C614.65 257.021 614.34 259.021 613.54 260.841C612.73 262.671 611.55 264.151 609.99 265.271C608.43 266.401 606.57 267.051 604.41 267.241C602.3 267.421 600.36 267.101 598.61 266.261C596.86 265.421 595.42 264.181 594.31 262.521C593.2 260.861 592.55 258.951 592.36 256.791L589.38 222.751L577.96 223.751L581 258.531C581.35 262.561 582.64 266.071 584.86 269.071C587.08 272.071 589.96 274.331 593.51 275.851C597.06 277.371 600.99 277.941 605.32 277.561C609.64 277.181 613.42 275.941 616.65 273.821C619.88 271.711 622.33 268.981 623.99 265.641C625.65 262.301 626.31 258.621 625.96 254.591L622.92 219.811L622.9 219.821Z" fill="white"/>
<path d="M667.24 215.94L628.19 219.35L629.06 229.3L642.99 228.08L646.92 273.03L658.34 272.03L654.41 227.08L668.11 225.88L667.24 215.94Z" fill="white"/>
<path d="M719.8 211.34L706.76 212.48L697.56 232.63L684.95 214.39L671.91 215.53L692.89 244.88L694.98 268.82L706.4 267.82L704.3 243.8L719.8 211.34Z" fill="white"/>
<path d="M119.021 205.59C124.311 205.59 129.401 206.44 134.171 207.99V196.16C134.171 195.14 133.341 194.31 132.321 194.31H127.251V181.84H135.251C136.601 181.84 137.691 180.75 137.691 179.4C137.691 178.05 136.601 176.96 135.251 176.96H112.651C111.631 176.96 110.801 177.79 110.801 178.81V194.3H105.731C104.711 194.3 103.881 195.13 103.881 196.15V207.98C108.651 206.43 113.741 205.58 119.031 205.58L119.021 205.59Z" fill="#008C8C"/>
<path d="M95.2305 297.42L86.5205 318.22L97.9905 323.03L106.78 302.05C110.7 303.06 114.8 303.6 119.03 303.6C146.08 303.6 168.08 281.6 168.08 254.55H155.65C155.65 274.74 139.22 291.17 119.03 291.17C98.8405 291.17 82.4105 274.74 82.4105 254.55H69.9805C69.9805 272.97 80.1905 289.04 95.2405 297.42H95.2305Z" fill="black"/>
<path d="M70.0605 254.55C70.0605 227.51 91.9806 205.59 119.021 205.59C146.061 205.59 167.981 227.51 167.981 254.55H70.0605Z" fill="#82DCFF"/>
<path d="M155.631 254.55C155.631 274.77 139.241 291.17 119.011 291.17C98.7906 291.17 82.3906 274.78 82.3906 254.55H155.621H155.631Z" fill="white"/>
</g>
</g>
<defs>
<clipPath id="clip0_202_2314">
<rect width="1024" height="500" fill="white"/>
</clipPath>
<clipPath id="clip1_202_2314">
<rect width="1080.64" height="342" fill="white" transform="translate(-28 79)"/>
</clipPath>
</defs>
</svg>
